<svg id="male-user-svgrepo-com" xmlns="http://www.w3.org/2000/svg" width="276.511" height="267.363" viewBox="0 0 276.511 267.363">
  <g id="Group_1" data-name="Group 1">
    <path id="Path_1" data-name="Path 1" d="M138.26,0C62.015,0,0,59.964,0,133.682S62.015,267.363,138.265,267.363c76.231,0,138.246-59.963,138.246-133.681S214.5,0,138.26,0ZM100.469,108.265l.278-.294a3.369,3.369,0,0,0,1.471-3.328c-2.784-16.2-.957-22.954-.34-24.65,4.866-14.441,20.141-21.12,23.139-22.3a15.937,15.937,0,0,1,3.015-.767l.357-.08,2.454-.126.019.147.569-.053a15.761,15.761,0,0,0,1.6-.241l.542-.112a88.72,88.72,0,0,1,15.26,3.353l6.139,2.043c11.227,3.206,16.392,9.171,17.351,10.373,8.991,9.849,6.579,24.721,4.353,32.706a3.252,3.252,0,0,0,.451,2.713l.508.606c.651.856,1.235,4.157-.716,11.168a9.021,9.021,0,0,1-2.392,5.026,3.358,3.358,0,0,0-.873,1.758c-3.039,17.225-19,36.5-35.826,36.5-14.278,0-30.573-17.727-33.5-36.481a3.413,3.413,0,0,0-.914-1.848,10.108,10.108,0,0,1-2.468-5.593C99.505,113.87,99.365,109.915,100.469,108.265Zm-32.052,74.7c.619-.758,4.071-4.668,11.052-7.244,6.138-1.823,21.311-6.7,29.6-12.509a5.2,5.2,0,0,0,1.089-.909c.767-.8,1.939-2.02,3.328-3.264l.774-.711.788.716c7.307,6.661,15.391,10.309,22.766,10.309,7.748,0,15.735-3.24,23.118-9.382l.579-.478,1.566.735a27.964,27.964,0,0,0,4.947,3.461l1.443.68-.151.151.641.376c1.362.794,2.844,1.566,4.581,2.4,1.757.748,3.228,1.3,4.747,1.786a160.123,160.123,0,0,1,15.875,6.087l1.482.431c7.6,2.814,10.966,6.72,11.3,7.128,9.015,12.917,12.471,37.021,13.758,50.452a135.759,135.759,0,0,1-166.872-.01C56.09,219.775,59.518,195.749,68.417,182.966Z" fill="#4e6dd4"/>
  </g>
</svg>
